<?xml version="1.0" standalone="no"?>
<!DOCTYPE svg PUBLIC "-//W3C//DTD SVG 20010904//EN"
 "http://www.w3.org/TR/2001/REC-SVG-20010904/DTD/svg10.dtd">
<svg version="1.0" xmlns="http://www.w3.org/2000/svg"
 width="320.000000pt" height="320.000000pt" viewBox="0 0 320.000000 320.000000"
 preserveAspectRatio="xMidYMid meet">
<metadata>
Created by potrace 1.14, written by Peter Selinger 2001-2017
</metadata>
<g transform="translate(0.000000,320.000000) scale(0.100000,-0.100000)"
fill="#000000" stroke="none">
<path d="M0 1600 l0 -1600 1600 0 1600 0 0 1600 0 1600 -1600 0 -1600 0 0
-1600z m1224 774 c33 -8 75 -24 94 -36 36 -22 72 -72 72 -99 0 -9 12 -22 26
-30 48 -25 131 -126 155 -186 18 -46 23 -78 23 -160 1 -57 4 -103 7 -103 9 0
142 141 222 235 40 47 83 110 102 153 74 159 130 190 253 138 48 -20 65 -23
97 -16 49 11 83 36 107 80 l20 35 -6 -44 c-10 -66 -43 -134 -84 -173 -20 -19
-95 -70 -167 -113 -262 -158 -551 -359 -607 -422 -30 -33 -48 -90 -48 -151 0
-50 5 -66 30 -100 35 -49 57 -62 105 -62 71 0 113 36 140 120 22 69 55 114
106 142 22 13 41 32 43 43 2 11 8 49 14 85 23 158 116 257 249 268 75 6 154
-33 194 -96 41 -65 41 -156 1 -233 -45 -87 -123 -123 -180 -83 -57 40 -41 100
33 128 71 27 84 72 38 126 -23 28 -31 32 -65 27 -85 -11 -127 -74 -128 -190 0
-65 1 -69 40 -109 89 -93 108 -213 63 -393 -30 -121 -62 -187 -120 -244 -31
-31 -57 -66 -60 -82 l-5 -29 -140 0 -139 0 7 23 c3 12 13 34 20 49 l14 27 -58
-21 c-38 -13 -92 -22 -162 -25 -101 -5 -166 5 -289 43 -23 7 -24 6 -19 -44 l5
-52 -163 0 c-158 0 -164 1 -164 20 0 51 28 88 118 161 7 6 12 34 12 69 0 53
-4 65 -35 105 -43 57 -59 113 -52 187 5 56 5 57 -42 105 -54 56 -86 131 -101
238 -16 115 -13 151 14 177 13 13 29 40 35 60 19 59 84 150 144 203 l55 49 -5
67 c-3 36 -3 87 1 113 l7 46 57 -6 c31 -3 84 -12 116 -20z"/>
<path d="M1034 1999 c-75 -53 -144 -109 -144 -118 0 -4 20 -12 44 -19 50 -13
109 -60 132 -104 8 -16 19 -26 23 -24 5 3 21 32 37 63 36 74 41 188 10 222
-11 12 -24 21 -31 21 -6 0 -38 -19 -71 -41z"/>
</g>
</svg>
